<svg width="187" height="17" viewBox="0 0 187 17" fill="none" xmlns="http://www.w3.org/2000/svg">
<path d="M1.76266 16C1.46932 16 1.22266 15.9 1.02266 15.7C0.822656 15.5 0.722656 15.2533 0.722656 14.96V1.42C0.722656 1.11333 0.822656 0.866666 1.02266 0.679999C1.22266 0.48 1.46932 0.38 1.76266 0.38H6.54266C7.44932 0.38 8.24266 0.56 8.92266 0.92C9.61599 1.26667 10.156 1.75333 10.5427 2.38C10.9427 3.00667 11.1427 3.72667 11.1427 4.54C11.1427 5.19333 10.9627 5.78667 10.6027 6.32C10.256 6.84 9.77599 7.25333 9.16266 7.56C10.0427 7.77333 10.7493 8.19333 11.2827 8.82C11.816 9.44667 12.0827 10.2667 12.0827 11.28C12.0827 12.2 11.8627 13.0133 11.4227 13.72C10.996 14.4267 10.396 14.9867 9.62266 15.4C8.84932 15.8 7.96266 16 6.96266 16H1.76266ZM2.80266 6.8H6.54266C7.30266 6.8 7.92266 6.61333 8.40266 6.24C8.89599 5.86667 9.14266 5.3 9.14266 4.54C9.14266 3.78 8.89599 3.22 8.40266 2.86C7.92266 2.48667 7.30266 2.3 6.54266 2.3H2.80266V6.8ZM2.80266 14.08H6.96266C7.86932 14.08 8.61599 13.8467 9.20266 13.38C9.78932 12.9 10.0827 12.2 10.0827 11.28C10.0827 10.4267 9.78932 9.78667 9.20266 9.36C8.61599 8.93333 7.86932 8.72 6.96266 8.72H2.80266V14.08ZM16.1958 16C15.9024 16 15.6558 15.9 15.4558 15.7C15.2691 15.5 15.1758 15.2533 15.1758 14.96V1.42C15.1758 1.12667 15.2758 0.879999 15.4758 0.679999C15.6758 0.48 15.9158 0.38 16.1958 0.38C16.4891 0.38 16.7358 0.48 16.9358 0.679999C17.1358 0.879999 17.2358 1.12667 17.2358 1.42V13.92H24.4758C24.7691 13.92 25.0158 14.02 25.2158 14.22C25.4158 14.42 25.5158 14.6667 25.5158 14.96C25.5158 15.2533 25.4158 15.5 25.2158 15.7C25.0158 15.9 24.7691 16 24.4758 16H16.1958ZM33.8216 16.2C32.6482 16.2 31.5749 16.0067 30.6016 15.62C29.6282 15.22 28.7882 14.6667 28.0816 13.96C27.3882 13.24 26.8482 12.3933 26.4616 11.42C26.0749 10.4333 25.8816 9.35333 25.8816 8.18C25.8816 7.00667 26.0749 5.93333 26.4616 4.96C26.8482 3.98667 27.3882 3.14667 28.0816 2.44C28.7882 1.72 29.6282 1.16667 30.6016 0.779999C31.5749 0.38 32.6482 0.18 33.8216 0.18C34.9949 0.18 36.0616 0.38 37.0216 0.779999C37.9949 1.16667 38.8349 1.72 39.5416 2.44C40.2482 3.14667 40.7949 3.98667 41.1816 4.96C41.5682 5.93333 41.7616 7.00667 41.7616 8.18C41.7616 9.35333 41.5682 10.4333 41.1816 11.42C40.7949 12.3933 40.2482 13.24 39.5416 13.96C38.8349 14.6667 37.9949 15.22 37.0216 15.62C36.0616 16.0067 34.9949 16.2 33.8216 16.2ZM33.8216 14.32C34.9816 14.32 36.0082 14.0533 36.9016 13.52C37.7949 12.9733 38.4949 12.24 39.0016 11.32C39.5082 10.3867 39.7616 9.34 39.7616 8.18C39.7616 7.02 39.5082 5.98 39.0016 5.06C38.4949 4.12667 37.7949 3.39333 36.9016 2.86C36.0082 2.32667 34.9816 2.06 33.8216 2.06C32.6616 2.06 31.6349 2.32667 30.7416 2.86C29.8482 3.39333 29.1482 4.12667 28.6416 5.06C28.1349 5.98 27.8816 7.02 27.8816 8.18C27.8816 9.34 28.1349 10.3867 28.6416 11.32C29.1482 12.24 29.8482 12.9733 30.7416 13.52C31.6349 14.0533 32.6616 14.32 33.8216 14.32ZM51.6289 16.2C50.5489 16.2 49.5356 16 48.5889 15.6C47.6556 15.1867 46.8356 14.62 46.1289 13.9C45.4356 13.1667 44.8889 12.3133 44.4889 11.34C44.1022 10.3667 43.9089 9.31333 43.9089 8.18C43.9089 7.06 44.1022 6.02 44.4889 5.06C44.8889 4.08667 45.4356 3.24 46.1289 2.52C46.8356 1.78667 47.6556 1.21333 48.5889 0.799999C49.5222 0.386666 50.5356 0.18 51.6289 0.18C52.6556 0.18 53.5356 0.313333 54.2689 0.579999C55.0156 0.846666 55.7622 1.28667 56.5089 1.9C56.6689 2.03333 56.7756 2.16 56.8289 2.28C56.8822 2.4 56.9089 2.54667 56.9089 2.72C56.9089 2.97333 56.8156 3.18667 56.6289 3.36C56.4556 3.52 56.2422 3.61333 55.9889 3.64C55.7356 3.65333 55.4889 3.56667 55.2489 3.38C54.7556 2.95333 54.2422 2.62667 53.7089 2.4C53.1889 2.17333 52.4956 2.06 51.6289 2.06C50.8422 2.06 50.1022 2.22 49.4089 2.54C48.7156 2.86 48.1022 3.3 47.5689 3.86C47.0489 4.42 46.6422 5.07333 46.3489 5.82C46.0556 6.55333 45.9089 7.34 45.9089 8.18C45.9089 9.03333 46.0556 9.83333 46.3489 10.58C46.6422 11.3133 47.0489 11.96 47.5689 12.52C48.1022 13.08 48.7156 13.52 49.4089 13.84C50.1022 14.1467 50.8422 14.3 51.6289 14.3C52.3089 14.3 52.9489 14.1867 53.5489 13.96C54.1622 13.72 54.7489 13.3933 55.3089 12.98C55.5489 12.8067 55.7822 12.7333 56.0089 12.76C56.2489 12.7733 56.4489 12.8667 56.6089 13.04C56.7689 13.2 56.8489 13.4267 56.8489 13.72C56.8489 14 56.7422 14.2467 56.5289 14.46C55.0889 15.62 53.4556 16.2 51.6289 16.2ZM61.2158 16C60.9358 16 60.6891 15.9 60.4758 15.7C60.2758 15.5 60.1758 15.2533 60.1758 14.96V1.42C60.1758 1.12667 60.2758 0.879999 60.4758 0.679999C60.6891 0.48 60.9358 0.38 61.2158 0.38C61.5091 0.38 61.7558 0.48 61.9558 0.679999C62.1558 0.879999 62.2558 1.12667 62.2558 1.42V7.42L68.8758 0.799999C69.0358 0.639999 69.1824 0.533333 69.3158 0.48C69.4491 0.413333 69.5891 0.38 69.7358 0.38C70.0691 0.38 70.3091 0.48 70.4558 0.679999C70.6024 0.879999 70.6558 1.12 70.6158 1.4C70.5758 1.66667 70.4491 1.91333 70.2358 2.14L65.1358 7.26L70.3358 14.34C70.4958 14.5667 70.5624 14.8133 70.5358 15.08C70.5091 15.3333 70.4158 15.5533 70.2558 15.74C70.0958 15.9133 69.8824 16 69.6158 16C69.2424 16 68.9558 15.8533 68.7558 15.56L63.6958 8.7L62.2558 10.14V14.96C62.2558 15.2533 62.1558 15.5 61.9558 15.7C61.7558 15.9 61.5091 16 61.2158 16ZM80.415 16C80.1217 16 79.875 15.9 79.675 15.7C79.475 15.5 79.375 15.2533 79.375 14.96V1.42C79.375 1.11333 79.475 0.866666 79.675 0.679999C79.875 0.48 80.1217 0.38 80.415 0.38H89.455C89.7617 0.38 90.0083 0.473333 90.195 0.66C90.3817 0.833333 90.475 1.06667 90.475 1.36C90.475 1.64 90.3817 1.86667 90.195 2.04C90.0083 2.21333 89.7617 2.3 89.455 2.3H81.455V7.16H87.195C87.5017 7.16 87.7483 7.25333 87.935 7.44C88.1217 7.61333 88.215 7.84 88.215 8.12C88.215 8.4 88.1217 8.63333 87.935 8.82C87.7483 8.99333 87.5017 9.08 87.195 9.08H81.455V14.08H89.455C89.7617 14.08 90.0083 14.1667 90.195 14.34C90.3817 14.5133 90.475 14.74 90.475 15.02C90.475 15.3133 90.3817 15.5533 90.195 15.74C90.0083 15.9133 89.7617 16 89.455 16H80.415ZM93.3189 16C93.0122 16 92.7789 15.9067 92.6189 15.72C92.4589 15.52 92.3789 15.2933 92.3789 15.04C92.3789 14.7733 92.4589 14.5333 92.6189 14.32L97.2789 8.12L92.8789 2.02C92.7189 1.80667 92.6522 1.57333 92.6789 1.32C92.7056 1.06667 92.7989 0.846666 92.9589 0.66C93.1322 0.473333 93.3589 0.38 93.6389 0.38C93.9856 0.38 94.2322 0.48 94.3789 0.679999L98.6789 6.64L103.159 0.679999C103.346 0.48 103.592 0.38 103.899 0.38C104.179 0.38 104.399 0.466666 104.559 0.64C104.719 0.813333 104.806 1.02667 104.819 1.28C104.832 1.53333 104.759 1.78 104.599 2.02L100.039 8.1L104.519 14.32C104.679 14.5333 104.752 14.7733 104.739 15.04C104.726 15.3067 104.632 15.5333 104.459 15.72C104.299 15.9067 104.072 16 103.779 16C103.446 16 103.179 15.8733 102.979 15.62L98.6389 9.6L94.0389 15.7C93.8389 15.9 93.5989 16 93.3189 16ZM108.735 16C108.442 16 108.195 15.9 107.995 15.7C107.795 15.5 107.695 15.2533 107.695 14.96V1.42C107.695 1.11333 107.795 0.866666 107.995 0.679999C108.195 0.48 108.442 0.38 108.735 0.38H112.735C113.735 0.38 114.622 0.6 115.395 1.04C116.169 1.48 116.769 2.09333 117.195 2.88C117.635 3.65333 117.855 4.54667 117.855 5.56C117.855 6.53333 117.635 7.4 117.195 8.16C116.769 8.92 116.169 9.51333 115.395 9.94C114.622 10.3667 113.735 10.58 112.735 10.58H109.775V14.96C109.775 15.2533 109.675 15.5 109.475 15.7C109.289 15.9 109.042 16 108.735 16ZM109.775 8.66H112.735C113.642 8.66 114.389 8.37333 114.975 7.8C115.562 7.21333 115.855 6.46667 115.855 5.56C115.855 4.92 115.722 4.36 115.455 3.88C115.189 3.38667 114.822 3 114.355 2.72C113.889 2.44 113.349 2.3 112.735 2.3H109.775V8.66ZM121.176 16C120.883 16 120.636 15.9 120.436 15.7C120.25 15.5 120.156 15.2533 120.156 14.96V1.42C120.156 1.12667 120.256 0.879999 120.456 0.679999C120.656 0.48 120.896 0.38 121.176 0.38C121.47 0.38 121.716 0.48 121.916 0.679999C122.116 0.879999 122.216 1.12667 122.216 1.42V13.92H129.456C129.75 13.92 129.996 14.02 130.196 14.22C130.396 14.42 130.496 14.6667 130.496 14.96C130.496 15.2533 130.396 15.5 130.196 15.7C129.996 15.9 129.75 16 129.456 16H121.176ZM138.802 16.2C137.629 16.2 136.555 16.0067 135.582 15.62C134.609 15.22 133.769 14.6667 133.062 13.96C132.369 13.24 131.829 12.3933 131.442 11.42C131.055 10.4333 130.862 9.35333 130.862 8.18C130.862 7.00667 131.055 5.93333 131.442 4.96C131.829 3.98667 132.369 3.14667 133.062 2.44C133.769 1.72 134.609 1.16667 135.582 0.779999C136.555 0.38 137.629 0.18 138.802 0.18C139.975 0.18 141.042 0.38 142.002 0.779999C142.975 1.16667 143.815 1.72 144.522 2.44C145.229 3.14667 145.775 3.98667 146.162 4.96C146.549 5.93333 146.742 7.00667 146.742 8.18C146.742 9.35333 146.549 10.4333 146.162 11.42C145.775 12.3933 145.229 13.24 144.522 13.96C143.815 14.6667 142.975 15.22 142.002 15.62C141.042 16.0067 139.975 16.2 138.802 16.2ZM138.802 14.32C139.962 14.32 140.989 14.0533 141.882 13.52C142.775 12.9733 143.475 12.24 143.982 11.32C144.489 10.3867 144.742 9.34 144.742 8.18C144.742 7.02 144.489 5.98 143.982 5.06C143.475 4.12667 142.775 3.39333 141.882 2.86C140.989 2.32667 139.962 2.06 138.802 2.06C137.642 2.06 136.615 2.32667 135.722 2.86C134.829 3.39333 134.129 4.12667 133.622 5.06C133.115 5.98 132.862 7.02 132.862 8.18C132.862 9.34 133.115 10.3867 133.622 11.32C134.129 12.24 134.829 12.9733 135.722 13.52C136.615 14.0533 137.642 14.32 138.802 14.32ZM151.04 16C150.747 16 150.5 15.9 150.3 15.7C150.1 15.5 150 15.2533 150 14.96V1.42C150 1.11333 150.1 0.866666 150.3 0.679999C150.5 0.48 150.747 0.38 151.04 0.38H154.64C155.64 0.38 156.527 0.593333 157.3 1.02C158.073 1.43333 158.673 2.00667 159.1 2.74C159.54 3.47333 159.76 4.32667 159.76 5.3C159.76 6.26 159.52 7.10667 159.04 7.84C158.56 8.56 157.907 9.10667 157.08 9.48L160.14 14.4C160.38 14.7867 160.413 15.1533 160.24 15.5C160.067 15.8333 159.767 16 159.34 16C158.953 16 158.653 15.8333 158.44 15.5L155 9.98C154.88 9.98 154.76 9.98 154.64 9.98H152.08V14.96C152.08 15.2533 151.98 15.5 151.78 15.7C151.593 15.9 151.347 16 151.04 16ZM152.08 8.06H154.64C155.547 8.06 156.293 7.80667 156.88 7.3C157.467 6.78 157.76 6.11333 157.76 5.3C157.76 4.42 157.467 3.7 156.88 3.14C156.293 2.58 155.547 2.3 154.64 2.3H152.08V8.06ZM163.677 16C163.383 16 163.137 15.9 162.937 15.7C162.737 15.5 162.637 15.2533 162.637 14.96V1.42C162.637 1.11333 162.737 0.866666 162.937 0.679999C163.137 0.48 163.383 0.38 163.677 0.38H172.717C173.023 0.38 173.27 0.473333 173.457 0.66C173.643 0.833333 173.737 1.06667 173.737 1.36C173.737 1.64 173.643 1.86667 173.457 2.04C173.27 2.21333 173.023 2.3 172.717 2.3H164.717V7.16H170.457C170.763 7.16 171.01 7.25333 171.197 7.44C171.383 7.61333 171.477 7.84 171.477 8.12C171.477 8.4 171.383 8.63333 171.197 8.82C171.01 8.99333 170.763 9.08 170.457 9.08H164.717V14.08H172.717C173.023 14.08 173.27 14.1667 173.457 14.34C173.643 14.5133 173.737 14.74 173.737 15.02C173.737 15.3133 173.643 15.5533 173.457 15.74C173.27 15.9133 173.023 16 172.717 16H163.677ZM177.681 16C177.387 16 177.141 15.9 176.941 15.7C176.741 15.5 176.641 15.2533 176.641 14.96V1.42C176.641 1.11333 176.741 0.866666 176.941 0.679999C177.141 0.48 177.387 0.38 177.681 0.38H181.281C182.281 0.38 183.167 0.593333 183.941 1.02C184.714 1.43333 185.314 2.00667 185.741 2.74C186.181 3.47333 186.401 4.32667 186.401 5.3C186.401 6.26 186.161 7.10667 185.681 7.84C185.201 8.56 184.547 9.10667 183.721 9.48L186.781 14.4C187.021 14.7867 187.054 15.1533 186.881 15.5C186.707 15.8333 186.407 16 185.981 16C185.594 16 185.294 15.8333 185.081 15.5L181.641 9.98C181.521 9.98 181.401 9.98 181.281 9.98H178.721V14.96C178.721 15.2533 178.621 15.5 178.421 15.7C178.234 15.9 177.987 16 177.681 16ZM178.721 8.06H181.281C182.187 8.06 182.934 7.80667 183.521 7.3C184.107 6.78 184.401 6.11333 184.401 5.3C184.401 4.42 184.107 3.7 183.521 3.14C182.934 2.58 182.187 2.3 181.281 2.3H178.721V8.06Z" fill="url(#paint0_linear)"/>
<defs>
<linearGradient id="paint0_linear" x1="25.5" y1="-22.225" x2="92.647" y2="49.2925" gradientUnits="userSpaceOnUse">
<stop offset="0.0490361" stop-color="#1F6AFF"/>
<stop offset="1" stop-color="#BC28FF"/>
</linearGradient>
</defs>
</svg>
