<svg height="512pt" viewBox="0 0 512.00106 512" width="512pt" xmlns="http://www.w3.org/2000/svg"><path d="m115.574219 472h-59.996094v-263.65625h59.996094zm0 0" fill="#b0ac9b"/><path d="m229.191406 472h-60v-263.65625h60zm0 0" fill="#b0ac9b"/><path d="m342.808594 472h-60v-263.65625h60zm0 0" fill="#878477"/><path d="m456.421875 472h-59.996094v-263.65625h59.996094zm0 0" fill="#878477"/><path d="m461.425781 238.34375h-410.847656c-8.285156 0-15-6.714844-15-15v-59.996094c0-8.285156 6.714844-15 15-15h410.847656c8.28125 0 15 6.714844 15 15v59.996094c0 8.285156-6.71875 15-15 15zm0 0" fill="#c4c0ad"/><path d="m461.425781 148.34375h-205.433593v90h205.433593c8.28125 0 15-6.714844 15-15v-60c0-8.28125-6.71875-15-15-15zm0 0" fill="#b0ac9b"/><path d="m496.992188 512h-481.976563c-8.285156 0-15-6.714844-15-15v-40c0-8.285156 6.714844-15 15-15h481.976563c8.285156 0 15 6.714844 15 15v40c0 8.285156-6.714844 15-15 15zm0 0" fill="#d6d3c5"/><path d="m496.992188 442h-241v70h241c8.285156 0 15-6.714844 15-15v-40c0-8.285156-6.714844-15-15-15zm0 0" fill="#c4c0ad"/><path d="m497 163.34375h-482l241-148.34375zm0 0" fill="#d6d3c5"/><path d="m255.992188 163.34375h241.007812l-241-148.34375-.007812.003906zm0 0" fill="#c4c0ad"/><path d="m497 178.34375h-482c-6.707031 0-12.601562-4.457031-14.429688-10.914062-1.828124-6.457032.851563-13.34375 6.566407-16.859376l241-148.34375c4.820312-2.96875 10.90625-2.96875 15.726562 0l241 148.34375c5.714844 3.519532 8.398438 10.402344 6.570313 16.859376-1.828125 6.457031-7.722656 10.914062-14.433594 10.914062zm-429.015625-30h376.03125l-188.015625-115.730469zm0 0" fill="#edeade"/><path d="m504.863281 150.570312-241-148.34375c-2.414062-1.484374-5.140625-2.226562-7.871093-2.226562v32.617188l.007812-.003907 188.015625 115.730469h-188.023437v30h241.007812c6.710938 0 12.605469-4.457031 14.429688-10.914062 1.832031-6.457032-.851563-13.339844-6.566407-16.859376zm0 0" fill="#d6d3c5"/><path d="m266.199219 118.226562h-20.398438c-8.28125 0-15-6.714843-15-15 0-8.28125 6.71875-15 15-15h20.398438c8.28125 0 15 6.71875 15 15 0 8.285157-6.71875 15-15 15zm0 0" fill="#a19d8d"/><path d="m266.199219 88.226562h-10.207031v30h10.207031c8.28125 0 15-6.714843 15-15 0-8.28125-6.71875-15-15-15zm0 0" fill="#878477"/></svg>