<?xml version="1.0" encoding="utf-8"?>
<!-- Generator: Adobe Illustrator 25.2.0, SVG Export Plug-In . SVG Version: 6.00 Build 0)  -->
<svg version="1.1" id="Layer_1" xmlns="http://www.w3.org/2000/svg" xmlns:xlink="http://www.w3.org/1999/xlink" x="0px" y="0px"
	 viewBox="0 0 550 235" style="enable-background:new 0 0 550 235;" xml:space="preserve">
<style type="text/css">
	.st0{fill:#04222E;}
	.st1{fill-rule:evenodd;clip-rule:evenodd;fill:#04222E;}
	.st2{fill-rule:evenodd;clip-rule:evenodd;fill:url(#SVGID_1_);}
	.st3{fill-rule:evenodd;clip-rule:evenodd;fill:url(#SVGID_2_);}
	.st4{fill-rule:evenodd;clip-rule:evenodd;fill:url(#SVGID_3_);}
	.st5{fill-rule:evenodd;clip-rule:evenodd;fill:url(#SVGID_4_);}
	.st6{fill-rule:evenodd;clip-rule:evenodd;fill:url(#SVGID_5_);}
	.st7{fill-rule:evenodd;clip-rule:evenodd;fill:url(#SVGID_6_);}
	.st8{fill-rule:evenodd;clip-rule:evenodd;fill:url(#SVGID_7_);}
	.st9{fill-rule:evenodd;clip-rule:evenodd;fill:url(#SVGID_8_);}
	.st10{fill-rule:evenodd;clip-rule:evenodd;fill:url(#SVGID_9_);}
	.st11{fill-rule:evenodd;clip-rule:evenodd;fill:url(#SVGID_10_);}
	.st12{fill-rule:evenodd;clip-rule:evenodd;fill:url(#SVGID_11_);}
	.st13{fill-rule:evenodd;clip-rule:evenodd;fill:url(#SVGID_12_);}
	.st14{fill-rule:evenodd;clip-rule:evenodd;fill:url(#SVGID_13_);}
	.st15{fill-rule:evenodd;clip-rule:evenodd;fill:url(#SVGID_14_);}
	.st16{fill-rule:evenodd;clip-rule:evenodd;fill:url(#SVGID_15_);}
	.st17{fill-rule:evenodd;clip-rule:evenodd;fill:url(#SVGID_16_);}
	.st18{fill-rule:evenodd;clip-rule:evenodd;fill:url(#SVGID_17_);}
	.st19{fill-rule:evenodd;clip-rule:evenodd;fill:url(#SVGID_18_);}
</style>
<g>
	<path class="st0" d="M179.3,132.3l5.3-11.8c8.4,4,16,6,22.8,6c5.4,0,7.9-2,7.9-4.6c-0.1-1.6-0.9-3-2.3-3.7c-1.5-1-4.7-2.3-9.6-3.6
		c-6.8-1.8-10.9-3.4-15.5-6.2c-4.5-2.8-7.1-7.9-7-13.1c0-4.6,2-8.7,6.1-12.2c4-3.5,9.9-5.2,17.3-5.2c7.8,0,16.5,2,26.2,6.1
		l-5.3,11.8c-8.9-3.4-16.1-5.1-21.3-5.1c-5,0-7.5,1.9-7.5,4.5s2.2,4.3,11.2,7c7.7,2.3,11.4,3.6,16.2,6.8c5,2.8,7,7.2,7,13
		c0,4.6-2.2,9-6.5,12.5c-4.2,3.5-10.2,5.2-17.8,5.2C196.9,139.3,187.6,136.9,179.3,132.3z"/>
	<path class="st0" d="M298.7,95.6v42.8h-16.1v-37.6c0-6-2.3-9.2-9.1-9.2c-4.3,0-9.6,1.4-15.7,4.2v42.5h-16V53.6h16.1V84
		c7.9-4.2,15.4-6.4,22.3-6.4C292.5,77.6,298.7,83.6,298.7,95.6z"/>
	<path class="st0" d="M367,115.3h-41.9c2,7.8,7.2,11.7,15.6,11.7c5.7,0,11.7-1.5,18.5-4.3l5.1,11.1c-7.9,3.7-16.4,5.7-25.1,5.7
		c-9.1,0-16.3-2.8-21.9-8.6c-5.7-5.7-8.4-13.2-8.4-22.4s2.7-16.5,8.4-22.3c5.7-5.7,12.9-8.6,21.7-8.6c9.2,0,16.2,3.1,20.8,9.3
		s7.1,13.9,7.1,23.7L367,115.3z M324.8,104.3h27.6c-1-9.6-5.4-14.4-13.4-14.4S326,95.6,324.8,104.3L324.8,104.3z"/>
	<path class="st0" d="M378,121.8V53.6H394v65.9c0,3.7,1.8,5.7,5.4,5.7c1.1,0,2.5-0.1,4-0.2l1,13.6c-2.8,0.5-5.8,0.8-8.7,0.8
		C380.9,139.3,378,128.5,378,121.8z"/>
	<path class="st0" d="M413.4,121.8V53.6h16.1v65.9c0,3.7,1.8,5.7,5.4,5.7c1.1,0,2.5-0.1,4-0.2l1,13.6c-2.8,0.5-5.8,0.8-8.7,0.8
		C416.4,139.3,413.4,128.5,413.4,121.8z"/>
	<path class="st0" d="M445.7,132.3l5.3-11.8c8.4,4,16,6,22.8,6c5.4,0,7.9-2,7.9-4.6c-0.1-1.6-0.9-3-2.3-3.7c-1.5-1-4.8-2.3-9.6-3.6
		c-6.8-1.8-10.9-3.4-15.5-6.2c-4.5-2.8-7.1-7.9-7-13.1c0-4.6,2-8.7,6.1-12.2c4-3.5,9.8-5.2,17.3-5.2c7.8,0,16.5,2,26.1,6.1
		l-5.3,11.8c-8.9-3.4-16.1-5.1-21.3-5.1c-5,0-7.5,1.9-7.5,4.5s2.2,4.3,11.2,7c7.7,2.3,11.4,3.6,16.2,6.8c5,2.8,7,7.2,7,13
		c0,4.6-2.2,9-6.4,12.5c-4.1,3.5-10.2,5.2-17.8,5.2C463.4,139.3,454,136.9,445.7,132.3z"/>
	<path class="st0" d="M522.6,44.5v2.9h-8.7v22.8h-3.1V47.5h-8.6v-2.9h20.4V44.5z"/>
	<path class="st0" d="M550,70.3h-3l-0.7-20.8l-6.9,14.5c-0.3,0.6-0.9,1-1.5,1c-0.7,0-1.3-0.4-1.5-1l-6.9-14.5l-0.8,20.8h-3l0.8-23.9
		c0-1.2,1-2.1,2.2-2.1l0,0c0.9-0.1,1.6,0.4,2,1.2l7.1,15l7.1-15c0.4-0.8,1.1-1.3,2-1.2c1.2,0,2.2,0.9,2.2,2.1l0,0L550,70.3z"/>
	<path class="st1" d="M25.9,121.1C10.8,109.2,1.5,91.6,0.1,72.5c-0.7-12.2,2.1-24.4,8.2-35.1C21.8,14.9,45.8,0.8,72.1,0.1
		c19.2-0.9,38,5,53.2,16.8l3.7,2.9c1.1,0.9,1.8,2.1,1.9,3.5c0.2,1.4-0.2,2.8-1.2,3.8l-20.2,23.1c2.4,2.1,4.8,4.6,6.9,6.9
		c23.5,23.8,26.7,58.5,6.4,84c-27,33.6-78.3,38.3-111.8,11.8L7.4,150c-2.1-1.7-2.5-4.8-0.8-7.1l0.1-0.2L25.9,121.1z"/>
	
		<linearGradient id="SVGID_1_" gradientUnits="userSpaceOnUse" x1="78.2288" y1="665.9981" x2="35.8728" y2="722.059" gradientTransform="matrix(1 0 0 1 0 -614)">
		<stop  offset="0" style="stop-color:#52BD15"/>
		<stop  offset="1" style="stop-color:#A0E35D"/>
	</linearGradient>
	<path class="st2" d="M98.2,49.7L120.7,24c-13.5-10.3-30.1-15.5-47-14.7C38.4,10.8,8.7,37.7,10.5,71.7c1.6,19.4,12.6,37.1,29.6,47
		c8.7,5.1,18.7,7.8,28.8,7.5c22.7-0.9,41.9-16.6,43.2-38.5c1-20.2-15.4-40.8-38.2-37.4c-14,2.1-25.5,12.6-25.8,26.4
		c0,8.3,3.8,16.1,10.4,21.2l1.8-2.1l3.9-4.7c-3-2.7-4.8-6.7-4.8-10.8c0.3-8.9,7.7-15.8,16.6-15.6c10.5,0.6,18.7,9.5,18.3,20.1
		c0,0.8-0.1,1.6-0.3,2.3c-1.8,11.1-11.4,19.1-22.8,18.9c-5.7,0.2-11.3-1.4-16-4.6c-7.8-5.9-12.4-15.1-12.5-25c0-2.8,0.4-5.6,1.3-8.4
		c0.8-2.6,1.9-5.1,3.4-7.5c1.5-2.3,3.2-4.4,5.3-6.3c2-1.9,4.2-3.6,6.7-4.9c2.5-1.4,5.2-2.5,7.9-3.3c2.8-0.8,5.8-1.4,8.7-1.6
		c3.8-0.2,7.7,0.3,11.3,1.2C91.2,46.3,94.9,47.8,98.2,49.7z"/>
	
		<linearGradient id="SVGID_2_" gradientUnits="userSpaceOnUse" x1="61.1248" y1="761.3619" x2="120.181" y2="694.3104" gradientTransform="matrix(1 0 0 1 0 -614)">
		<stop  offset="0" style="stop-color:#52BD15"/>
		<stop  offset="1" style="stop-color:#A0E35D"/>
	</linearGradient>
	<path class="st3" d="M37.3,123.2L18,145.5c13.5,10.5,30.3,15.8,47.4,14.9c19.6-0.5,38.8-9.4,50.9-24.7l0.4-0.5
		c4.6-5.6,7.9-12.2,9.9-19c3.9-19-2-38.8-15.8-52.6c6.2,9.7,8.1,21.4,5.2,32.4c-5.3,21.1-24.8,34.4-46.9,35.3
		C58,131.8,46.8,129,37.3,123.2z"/>
	
		<linearGradient id="SVGID_3_" gradientUnits="userSpaceOnUse" x1="115.3082" y1="706.6606" x2="40.7368" y2="767.0515" gradientTransform="matrix(1 0 0 1 0 -614)">
		<stop  offset="0" style="stop-color:#134A00"/>
		<stop  offset="1" style="stop-color:#134A00;stop-opacity:0"/>
	</linearGradient>
	<path class="st4" d="M18,145.5c15.5,12,35.2,17.1,54.5,14.4l0.7-29c-14.1,1.9-26.5-2.4-35.9-7.7L18,145.5z"/>
	
		<linearGradient id="SVGID_4_" gradientUnits="userSpaceOnUse" x1="88.4105" y1="691.757" x2="31.7829" y2="711.8539" gradientTransform="matrix(1 0 0 1 0 -614)">
		<stop  offset="0" style="stop-color:#134A00"/>
		<stop  offset="1" style="stop-color:#134A00;stop-opacity:0"/>
	</linearGradient>
	<path class="st5" d="M11.9,80.4c6.9,28.2,29,38.7,29,38.7l15-17.5C43.8,93,43.1,79,43.1,79L11.9,80.4z"/>
	
		<linearGradient id="SVGID_5_" gradientUnits="userSpaceOnUse" x1="44.1072" y1="707.2798" x2="48.4003" y2="643.539" gradientTransform="matrix(1 0 0 1 0 -614)">
		<stop  offset="0" style="stop-color:#134A00"/>
		<stop  offset="1" style="stop-color:#134A00;stop-opacity:0"/>
	</linearGradient>
	<path class="st6" d="M49.1,58.4c6-8.1,15.9-13.2,25.7-14.1L74.4,9.3c0,0-33-0.7-53.9,28L49.1,58.4z"/>
	
		<linearGradient id="SVGID_6_" gradientUnits="userSpaceOnUse" x1="56.4598" y1="730.0143" x2="22.9372" y2="669.9078" gradientTransform="matrix(1 0 0 1 0 -614)">
		<stop  offset="0" style="stop-color:#134A00"/>
		<stop  offset="1" style="stop-color:#134A00;stop-opacity:0"/>
	</linearGradient>
	<path class="st7" d="M49.1,58.4L20.6,37.3c-9,12.5-12.1,28.2-8.7,43.2l31.2-1.4C42.4,71.6,44.5,64.3,49.1,58.4z"/>
	
		<linearGradient id="SVGID_7_" gradientUnits="userSpaceOnUse" x1="48.8751" y1="657.9978" x2="77.2551" y2="689.861" gradientTransform="matrix(1 0 0 1 0 -614)">
		<stop  offset="0" style="stop-color:#FFFFFF"/>
		<stop  offset="1" style="stop-color:#FFFFFF;stop-opacity:0"/>
	</linearGradient>
	<path class="st8" d="M104.8,63.5c-6.9-10-18.9-15.1-30.9-13.2c-14,2.1-25.5,12.6-25.7,26.4c0,8.3,3.8,16.1,10.4,21.2l1-1.2
		C51,87,50.5,70.5,60.9,63.1c17.6-12.7,38.3-2.3,44.7,16.3c2,6.7,3.2,13.6,3.6,20.6C114.1,87.8,112.5,74.1,104.8,63.5L104.8,63.5z"
		/>
	
		<linearGradient id="SVGID_8_" gradientUnits="userSpaceOnUse" x1="89.714" y1="674.5613" x2="136.2277" y2="728.5063" gradientTransform="matrix(1 0 0 1 0 -614)">
		<stop  offset="0" style="stop-color:#134A00"/>
		<stop  offset="1" style="stop-color:#134A00;stop-opacity:0"/>
	</linearGradient>
	<path class="st9" d="M111.4,107.5l14.1,12.2c0.2-0.8,0.9-2.6,1.1-3.4c4-19.1-1.9-39-15.7-52.8c6.3,9.7,8.2,21.6,5.4,32.7
		C115,100.1,113.4,103.9,111.4,107.5z"/>
	
		<linearGradient id="SVGID_9_" gradientUnits="userSpaceOnUse" x1="27.9355" y1="801.0178" x2="109.0313" y2="677.4716" gradientTransform="matrix(1 0 0 1 0 -614)">
		<stop  offset="0" style="stop-color:#134A00"/>
		<stop  offset="1" style="stop-color:#134A00;stop-opacity:0"/>
	</linearGradient>
	<path class="st10" d="M64.9,137.8c24.5-1,45.8-15.8,51.4-38.7c3-12.2,2.6-23.1-5.6-35.7c6.2,9.7,8,21.5,5.2,32.5
		c-5.3,21.1-24.5,34.3-46.9,35.3c-11.1,0.5-22.1-2.3-31.8-8l-5.8,6.5C41.8,135.5,53.3,138.3,64.9,137.8z"/>
	
		<linearGradient id="SVGID_10_" gradientUnits="userSpaceOnUse" x1="82.2156" y1="695.3153" x2="96.1069" y2="636.867" gradientTransform="matrix(1 0 0 1 0 -614)">
		<stop  offset="0" style="stop-color:#134A00"/>
		<stop  offset="1" style="stop-color:#134A00;stop-opacity:0"/>
	</linearGradient>
	<path class="st11" d="M74.7,44.3L74.5,9.2c16.6-0.5,33,4.7,46.1,14.8L98.2,49.7C90.9,45.5,81.4,43.4,74.7,44.3z"/>
	
		<linearGradient id="SVGID_11_" gradientUnits="userSpaceOnUse" x1="50.1267" y1="-83.2812" x2="109.2855" y2="-49.7342" gradientTransform="matrix(1 5.410494e-03 -5.410494e-03 1 -40.0689 113.8741)">
		<stop  offset="0" style="stop-color:#FFFFFF;stop-opacity:0.5"/>
		<stop  offset="1" style="stop-color:#FFFFFF;stop-opacity:0"/>
	</linearGradient>
	<path class="st12" d="M120.7,24.1c-13.5-10.4-30.1-15.6-47-14.8C38.4,10.8,8.7,37.7,10.5,71.7c1.6,19.4,12.6,37.1,29.6,47
		c6.6,3.9,14,6.4,21.6,7.3c2,0.2,3.9,0.3,6,0.2c-24.8-0.9-46-22.9-47.3-47.4C18.8,49,44.9,25.6,75.4,24.3
		c12.8-0.5,25.5,2.9,36.4,9.8L120.7,24.1z"/>
	
		<linearGradient id="SVGID_12_" gradientUnits="userSpaceOnUse" x1="14.2455" y1="636.7385" x2="76.0372" y2="682.3633" gradientTransform="matrix(1 0 0 1 0 -614)">
		<stop  offset="0" style="stop-color:#FFFFFF;stop-opacity:0.5"/>
		<stop  offset="1" style="stop-color:#FFFFFF;stop-opacity:0"/>
	</linearGradient>
	<path class="st13" d="M120.7,24.1c-13.5-10.4-30.1-15.6-47-14.8C38.4,10.8,8.7,37.7,10.5,71.7c1.6,19.4,12.6,37.1,29.6,47
		c6.6,3.9,14,6.4,21.6,7.3c2,0.2,3.9,0.3,6,0.2c-24.8-0.9-46-22.9-47.3-47.4C18.8,49,44.9,25.6,75.4,24.3
		c12.8-0.5,25.5,2.9,36.4,9.8L120.7,24.1z"/>
	
		<linearGradient id="SVGID_13_" gradientUnits="userSpaceOnUse" x1="139.3155" y1="755.9094" x2="68.4361" y2="701.4203" gradientTransform="matrix(1 0 0 1 0 -614)">
		<stop  offset="0" style="stop-color:#134A00"/>
		<stop  offset="1" style="stop-color:#134A00;stop-opacity:0"/>
	</linearGradient>
	<path class="st14" d="M110.1,97.6c-1.1,3-2.5,5.9-4.1,8.7c-3.7,5.7-9,10.5-15.1,13.8c-6,3.3-12.5,5.3-19.3,5.8
		c-5.9,0.5-11.7,0-17.5-1.4c-1.2-0.3-2.4-0.6-3.5-1c-3.6-1.2-7.2-2.8-10.5-4.8c-3.3-1.9-6.5-4.2-9.3-6.9c-2.7-2.4-5.3-5-7.5-8
		c-0.4-0.6-0.8-1.1-1.2-1.7c-0.4-0.6-0.9-1.2-1.3-1.8c2.4,2.7,5.2,5.2,8.1,7.5c1.6,1.3,3.3,2.4,5.2,3.4c0.8,0.5,1.6,0.9,2.4,1.4
		c1.1,0.6,2.2,1.1,3.3,1.6c0.6,0.3,1.2,0.5,1.9,0.8c1.1,0.4,2.2,0.8,3.3,1.2c0.8,0.3,1.7,0.5,2.5,0.7c1.6,0.4,3.3,0.8,5.1,1.1
		c7.5,1.2,15.3,0.8,22.6-1.2l0.9-0.2c1.3-0.3,2.5-0.7,3.7-1.2h0.1c17.4-7,25.8-26.6,18.7-43.9c-2.8-7-7.9-12.8-14.5-16.6
		c-2.1-1.2-4.3-2.2-6.7-2.9l-0.2-0.1c-1.8-0.6-3.7-1-5.7-1.2c1.3-0.3,2.6-0.4,3.9-0.6c2.8-0.2,5.8-0.1,8.6,0.3
		c0.9,0.2,1.9,0.3,2.9,0.6c3.8,1.2,7.6,3,10.8,5.4c0.6,0.5,1.6,1.3,2.2,1.9c0.7,0.6,1.4,1.3,2,2c0.1,0.1,0.5,0.6,0.6,0.7
		c5,5.7,8.1,12.8,9.1,20.3c0.2,1.8,0.3,3.5,0.2,5.3C112.1,90.5,111.4,94.1,110.1,97.6z"/>
	
		<linearGradient id="SVGID_14_" gradientUnits="userSpaceOnUse" x1="139.3155" y1="755.9094" x2="68.4361" y2="701.4203" gradientTransform="matrix(1 0 0 1 0 -614)">
		<stop  offset="0" style="stop-color:#134A00"/>
		<stop  offset="1" style="stop-color:#134A00;stop-opacity:0"/>
	</linearGradient>
	<path class="st15" d="M110.1,97.6c-1.1,3-2.5,5.9-4.1,8.7c-3.7,5.7-9,10.5-15.1,13.8c-6,3.3-12.5,5.3-19.3,5.8
		c-5.9,0.5-11.7,0-17.5-1.4c-1.2-0.3-2.4-0.6-3.5-1c-3.6-1.2-7.2-2.8-10.5-4.8c-3.3-1.9-6.5-4.2-9.3-6.9c-2.7-2.4-5.3-5-7.5-8
		c-0.4-0.6-0.8-1.1-1.2-1.7c-0.4-0.6-0.9-1.2-1.3-1.8c2.4,2.7,5.2,5.2,8.1,7.5c1.6,1.3,3.3,2.4,5.2,3.4c0.8,0.5,1.6,0.9,2.4,1.4
		c1.1,0.6,2.2,1.1,3.3,1.6c0.6,0.3,1.2,0.5,1.9,0.8c1.1,0.4,2.2,0.8,3.3,1.2c0.8,0.3,1.7,0.5,2.5,0.7c1.6,0.4,3.3,0.8,5.1,1.1
		c7.5,1.2,15.3,0.8,22.6-1.2l0.9-0.2c1.3-0.3,2.5-0.7,3.7-1.2h0.1c17.4-7,25.8-26.6,18.7-43.9c-2.8-7-7.9-12.8-14.5-16.6
		c-2.1-1.2-4.3-2.2-6.7-2.9l-0.2-0.1c-1.8-0.6-3.7-1-5.7-1.2c1.3-0.3,2.6-0.4,3.9-0.6c2.8-0.2,5.8-0.1,8.6,0.3
		c0.9,0.2,1.9,0.3,2.9,0.6c3.8,1.2,7.6,3,10.8,5.4c0.6,0.5,1.6,1.3,2.2,1.9c0.7,0.6,1.4,1.3,2,2c0.1,0.1,0.5,0.6,0.6,0.7
		c5,5.7,8.1,12.8,9.1,20.3c0.2,1.8,0.3,3.5,0.2,5.3C112.1,90.5,111.4,94.1,110.1,97.6z"/>
	
		<linearGradient id="SVGID_15_" gradientUnits="userSpaceOnUse" x1="95.2336" y1="692.1633" x2="99.2936" y2="760.0561" gradientTransform="matrix(1 0 0 1 0 -614)">
		<stop  offset="0" style="stop-color:#134A00"/>
		<stop  offset="1" style="stop-color:#134A00;stop-opacity:0"/>
	</linearGradient>
	<path class="st16" d="M72.5,159.9c16.1-1.9,33.1-10.7,42.9-23.2l0.8-1c3.8-4.8,7-10.3,9.1-16l-14.1-12.2
		c-7.5,12.8-22.7,22-38.1,23.4L72.5,159.9z"/>
	
		<linearGradient id="SVGID_16_" gradientUnits="userSpaceOnUse" x1="148.7631" y1="829.259" x2="69.1157" y2="724.2646" gradientTransform="matrix(1 0 0 1 0 -614)">
		<stop  offset="0" style="stop-color:#FFFFFF"/>
		<stop  offset="1" style="stop-color:#FFFFFF;stop-opacity:0"/>
	</linearGradient>
	<path class="st17" d="M18,145.5c13.5,10.5,30.3,15.8,47.4,14.9c19.6-0.5,39-9.6,50.9-24.7l0.4-0.5c4.6-5.6,7.9-12.2,9.9-19
		c0.6-2.4,0.9-4.8,1-7.4c0.2-2.4,0.2-4.9,0.1-7.4c-0.5-9.9-3.5-19.5-8.9-27.9c-2.3-3.6-5-7-8-10c0.5,0.7,1,1.4,1.4,2.2
		c3.2,4.5,5.9,9.6,7.9,14.7c1.9,5.1,3,10.5,3.2,15.9v0.2c0,0.2,0,0.3,0,0.5c0.1,2.3,0,4.7-0.3,7.1c-0.2,2.3-0.5,4.6-1.1,6.9
		c-1.9,6.3-5,12.4-9.2,17.5l-0.4,0.5c-11.6,14-28.7,22.4-47,22.9c-15.1,0.6-29.8-3.8-42.1-12.6L18,145.5z"/>
	
		<linearGradient id="SVGID_17_" gradientUnits="userSpaceOnUse" x1="124.3756" y1="6.8535" x2="126.4309" y2="72.7646" gradientTransform="matrix(0.9999 -1.274056e-02 1.274056e-02 0.9999 -28.1238 75.5271)">
		<stop  offset="0" style="stop-color:#134A00"/>
		<stop  offset="1" style="stop-color:#134A00;stop-opacity:0"/>
	</linearGradient>
	<path class="st18" d="M72.5,159.9c16.1-1.9,33.1-10.7,42.9-23.2l0.8-1c3.8-4.8,7-10.3,9.1-16l-14.1-12.2
		c-7.5,12.8-22.7,22-38.1,23.4L72.5,159.9z"/>
	
		<linearGradient id="SVGID_18_" gradientUnits="userSpaceOnUse" x1="155.5716" y1="836.1979" x2="57.0336" y2="708.5649" gradientTransform="matrix(1 0 0 1 0 -614)">
		<stop  offset="0" style="stop-color:#FFFFFF"/>
		<stop  offset="1" style="stop-color:#FFFFFF;stop-opacity:0"/>
	</linearGradient>
	<path class="st19" d="M18,145.5c13.5,10.5,30.3,15.8,47.4,14.9c19.6-0.5,39-9.6,50.9-24.7l0.4-0.5c4.6-5.6,7.9-12.2,9.9-19
		c0.6-2.4,0.9-4.8,1-7.4c0.2-2.4,0.2-4.9,0.1-7.4c-0.5-9.9-3.5-19.5-8.9-27.9c-2.3-3.6-5-7-8-10c0.5,0.7,1,1.4,1.4,2.2
		c3.2,4.5,5.9,9.6,7.9,14.7c1.9,5.1,3,10.5,3.2,15.9v0.2c0,0.2,0,0.3,0,0.5c0.1,2.3,0,4.7-0.3,7.1c-0.2,2.3-0.5,4.6-1.1,6.9
		c-1.9,6.3-5,12.4-9.2,17.5l-0.4,0.5c-9.2,13.1-24.4,20.8-47,22.9c-15,1.4-30-3.9-42.1-12.6L18,145.5z"/>
</g>
<g>
	<path d="M9.3,210.4l8.3-12.8h5.1l-11.9,17.5l-2.2,10.5H4.1L6.3,215l-4.5-17.4h4.6L9.3,210.4z"/>
	<path d="M39.7,212.4c0,2.6-0.5,4.9-1.4,7c-0.9,2.1-2.2,3.7-3.8,4.9s-3.5,1.7-5.6,1.7c-2.4,0-4.4-0.7-5.8-2.2
		c-1.4-1.5-2.2-3.4-2.2-6c0-2.5,0.5-4.9,1.4-7c0.9-2.1,2.2-3.8,3.8-4.9c1.6-1.2,3.5-1.8,5.7-1.8c2.5,0,4.4,0.7,5.8,2.2
		C39,207.8,39.7,209.8,39.7,212.4z M35.2,212.2c0-1.4-0.3-2.4-0.9-3.2c-0.6-0.8-1.5-1.2-2.7-1.2c-1.2,0-2.2,0.5-3.2,1.4
		c-0.9,0.9-1.7,2.1-2.2,3.7s-0.8,3.2-0.8,5c0,1.4,0.3,2.5,0.9,3.2s1.6,1.1,2.8,1.1c1.1,0,2.2-0.4,3.1-1.3c0.9-0.9,1.6-2.1,2.1-3.6
		C34.9,215.8,35.2,214,35.2,212.2z"/>
	<path d="M51.2,204.5l-2.5,11.7c-0.4,1.8-0.6,3-0.6,3.7c0,1.7,0.8,2.5,2.4,2.5c0.9,0,1.8-0.4,2.7-1.1c0.9-0.7,1.7-1.8,2.4-3.1
		c0.7-1.3,1.2-2.9,1.6-4.7l1.9-9h4.5l-4.5,21.1h-3.5l0.4-3.9H56c-1,1.5-2.1,2.6-3.3,3.3c-1.1,0.7-2.4,1-3.7,1c-1.7,0-3-0.5-4-1.5
		c-0.9-1-1.4-2.4-1.4-4.2c0-0.8,0.1-1.6,0.2-2.4c0.2-0.8,0.3-1.6,0.5-2.4l2.4-11.2H51.2z"/>
	<path d="M79.9,204.1c0.8,0,1.5,0.1,2.1,0.2l-1,4.2c-0.7-0.2-1.3-0.3-2-0.3c-1.6,0-3,0.7-4.3,2.2c-1.3,1.4-2.1,3.3-2.6,5.7l-2,9.6
		h-4.5l4.5-21.1h3.5l-0.4,3.9h0.2c1.1-1.5,2.1-2.6,3.2-3.3C77.6,204.4,78.7,204.1,79.9,204.1z"/>
	<path d="M113.2,205.3c0,3.2-1.1,5.6-3.2,7.3c-2.2,1.7-5.2,2.5-9,2.5h-2.1l-2.2,10.5h-4.5l5.9-27.9h6.4c2.9,0,5.1,0.6,6.6,1.9
		C112.5,200.8,113.2,202.8,113.2,205.3z M99.7,211.3h1.8c2.3,0,4-0.5,5.3-1.5c1.2-1,1.9-2.5,1.9-4.3c0-1.4-0.4-2.4-1.1-3
		c-0.7-0.6-1.9-1-3.4-1h-2.3L99.7,211.3z"/>
	<path d="M123,226c-2.5,0-4.5-0.7-5.9-2.1c-1.4-1.4-2.1-3.4-2.1-5.9c0-2.5,0.5-4.9,1.5-7c1-2.2,2.3-3.9,4-5c1.7-1.2,3.6-1.8,5.7-1.8
		c2.1,0,3.6,0.5,4.8,1.4c1.1,0.9,1.7,2.2,1.7,3.9c0,2.3-1.1,4.1-3.2,5.4s-5.1,2-9.1,2h-0.8l0,0.6v0.6c0,1.4,0.4,2.5,1.1,3.3
		c0.7,0.8,1.8,1.2,3.2,1.2c0.9,0,1.8-0.1,2.7-0.4s2-0.7,3.2-1.2v3.6c-1.2,0.6-2.3,1-3.4,1.2C125.4,225.9,124.3,226,123,226z
		 M125.9,207.5c-1.2,0-2.4,0.5-3.5,1.6c-1.1,1.1-1.9,2.5-2.3,4.3h0.6c2.4,0,4.3-0.3,5.6-1c1.4-0.7,2-1.6,2-2.9
		c0-0.6-0.2-1.2-0.6-1.5S126.7,207.5,125.9,207.5z"/>
	<path d="M149,204.1c0.8,0,1.5,0.1,2.1,0.2l-1,4.2c-0.7-0.2-1.3-0.3-2-0.3c-1.6,0-3,0.7-4.3,2.2c-1.3,1.4-2.1,3.3-2.6,5.7l-2,9.6
		h-4.5l4.5-21.1h3.5l-0.4,3.9h0.2c1.1-1.5,2.1-2.6,3.2-3.3C146.7,204.4,147.8,204.1,149,204.1z"/>
	<path d="M164.7,219.1c0,2.2-0.8,3.9-2.3,5.1c-1.5,1.2-3.6,1.8-6.3,1.8c-2.4,0-4.5-0.4-6.2-1.3v-3.9c2,1.1,3.9,1.7,6,1.7
		c1.2,0,2.2-0.3,3-0.8s1.1-1.2,1.1-2.1c0-0.7-0.2-1.2-0.7-1.7c-0.4-0.5-1.3-1.1-2.7-1.9c-1.6-0.9-2.7-1.7-3.4-2.6
		c-0.7-0.9-1-1.9-1-3.1c0-2,0.7-3.5,2-4.6c1.4-1.1,3.2-1.7,5.5-1.7c2.5,0,4.7,0.5,6.6,1.6l-1.5,3.4c-1.8-1-3.5-1.5-5.1-1.5
		c-0.9,0-1.7,0.2-2.3,0.6c-0.6,0.4-0.9,1-0.9,1.8c0,0.6,0.2,1.1,0.6,1.5s1.3,1,2.6,1.7c1.3,0.8,2.3,1.4,2.8,1.9
		c0.6,0.5,1,1.1,1.3,1.7S164.7,218.3,164.7,219.1z"/>
	<path d="M188,212.4c0,2.6-0.5,4.9-1.4,7c-0.9,2.1-2.2,3.7-3.8,4.9s-3.5,1.7-5.6,1.7c-2.4,0-4.4-0.7-5.8-2.2c-1.4-1.5-2.2-3.4-2.2-6
		c0-2.5,0.5-4.9,1.4-7c0.9-2.1,2.2-3.8,3.8-4.9c1.6-1.2,3.5-1.8,5.7-1.8c2.5,0,4.4,0.7,5.8,2.2C187.3,207.8,188,209.8,188,212.4z
		 M183.5,212.2c0-1.4-0.3-2.4-0.9-3.2c-0.6-0.8-1.5-1.2-2.7-1.2c-1.2,0-2.2,0.5-3.2,1.4c-0.9,0.9-1.7,2.1-2.2,3.7s-0.8,3.2-0.8,5
		c0,1.4,0.3,2.5,0.9,3.2s1.6,1.1,2.8,1.1c1.1,0,2.2-0.4,3.1-1.3c0.9-0.9,1.6-2.1,2.1-3.6C183.2,215.8,183.5,214,183.5,212.2z"/>
	<path d="M203.3,225.6l2.7-12.8c0.2-1.1,0.3-2,0.3-2.5c0-1.7-0.8-2.5-2.5-2.5c-0.9,0-1.8,0.4-2.7,1.1c-0.9,0.7-1.7,1.8-2.4,3.1
		c-0.7,1.4-1.2,2.9-1.6,4.7l-1.9,9h-4.5l4.5-21.1h3.5l-0.4,3.9h0.2c1.1-1.5,2.1-2.6,3.3-3.3s2.3-1,3.7-1c1.7,0,3,0.5,4,1.5
		c0.9,1,1.4,2.3,1.4,4.1c0,0.9-0.1,2-0.4,3.5l-2.6,12.5H203.3z"/>
	<path d="M220.6,226c-1.8,0-3.2-0.6-4.3-1.9c-1-1.3-1.6-3.1-1.6-5.5c0-2.6,0.4-5,1.3-7.2s2.1-4,3.7-5.3c1.6-1.3,3.3-2,5.1-2
		c1.2,0,2.3,0.3,3.2,0.9s1.6,1.4,2.1,2.5h0.2l1.2-3h3.4l-4.5,21.1h-3.5l0.4-3.4h-0.1C225.2,224.7,223,226,220.6,226z M222.2,222.3
		c1,0,2.1-0.5,3.1-1.5s1.8-2.3,2.5-4c0.6-1.7,1-3.5,1-5.4c0-1.1-0.3-2-0.9-2.7c-0.6-0.7-1.4-1-2.4-1c-1.1,0-2.1,0.5-3.1,1.5
		c-1,1-1.7,2.3-2.3,4c-0.6,1.7-0.9,3.4-0.9,5.2c0,1.3,0.3,2.3,0.8,2.9S221.3,222.3,222.2,222.3z"/>
	<path d="M241,225.6h-4.5l6.3-29.7h4.5L241,225.6z"/>
	<path d="M274.2,201.2c-2,0-3.7,0.6-5.3,1.7c-1.5,1.1-2.8,2.8-3.7,5c-0.9,2.2-1.4,4.6-1.4,7.2c0,2.3,0.5,4,1.6,5.3
		c1.1,1.2,2.6,1.8,4.7,1.8c1.8,0,3.9-0.4,6.3-1.3v3.9c-2.3,0.9-4.7,1.3-7.1,1.3c-3.2,0-5.6-0.9-7.4-2.8c-1.8-1.9-2.7-4.5-2.7-8
		c0-3.3,0.7-6.4,2-9.2s3.1-5,5.4-6.5s4.8-2.2,7.7-2.2c2.8,0,5.2,0.6,7.4,1.8l-1.8,3.7c-0.8-0.4-1.7-0.8-2.6-1.1
		S275.3,201.2,274.2,201.2z"/>
	<path d="M285.3,225.6h-4.5l6.3-29.7h4.5L285.3,225.6z"/>
	<path d="M311.3,212.4c0,2.6-0.5,4.9-1.4,7c-0.9,2.1-2.2,3.7-3.8,4.9s-3.5,1.7-5.6,1.7c-2.4,0-4.4-0.7-5.8-2.2
		c-1.4-1.5-2.2-3.4-2.2-6c0-2.5,0.5-4.9,1.4-7s2.2-3.8,3.8-4.9c1.6-1.2,3.5-1.8,5.7-1.8c2.5,0,4.4,0.7,5.8,2.2
		C310.6,207.8,311.3,209.8,311.3,212.4z M306.8,212.2c0-1.4-0.3-2.4-0.9-3.2c-0.6-0.8-1.5-1.2-2.7-1.2c-1.2,0-2.2,0.5-3.2,1.4
		s-1.7,2.1-2.2,3.7c-0.5,1.6-0.8,3.2-0.8,5c0,1.4,0.3,2.5,0.9,3.2s1.6,1.1,2.8,1.1c1.1,0,2.2-0.4,3.1-1.3c0.9-0.9,1.6-2.1,2.1-3.6
		C306.6,215.8,306.8,214,306.8,212.2z"/>
	<path d="M322.8,204.5l-2.5,11.7c-0.4,1.8-0.6,3-0.6,3.7c0,1.7,0.8,2.5,2.4,2.5c0.9,0,1.8-0.4,2.7-1.1c0.9-0.7,1.7-1.8,2.4-3.1
		s1.2-2.9,1.6-4.7l1.9-9h4.5l-4.5,21.1h-3.5l0.4-3.9h-0.2c-1,1.5-2.1,2.6-3.3,3.3c-1.1,0.7-2.4,1-3.7,1c-1.7,0-3-0.5-4-1.5
		c-0.9-1-1.4-2.4-1.4-4.2c0-0.8,0.1-1.6,0.2-2.4c0.2-0.8,0.3-1.6,0.5-2.4l2.4-11.2H322.8z"/>
	<path d="M348.2,204.1c2.3,0,4,1.1,5.1,3.4h0.2c0.2-1.9,0.4-3.5,0.7-4.8l1.5-6.8h4.5l-6.3,29.7h-3.5l0.4-3.4h-0.1
		c-1.1,1.4-2.2,2.3-3.2,2.9c-1,0.6-2.2,0.9-3.3,0.9c-1.8,0-3.2-0.6-4.3-1.9c-1-1.3-1.5-3.1-1.5-5.5c0-2.6,0.5-5.1,1.4-7.3
		s2.1-4,3.7-5.3S346.3,204.1,348.2,204.1z M345.6,222.3c1,0,2.1-0.5,3.1-1.6c1-1,1.8-2.4,2.5-4.1c0.6-1.7,0.9-3.4,0.9-5.1
		c0-1.2-0.3-2.1-0.8-2.8s-1.4-1.1-2.5-1.1c-1.1,0-2.1,0.5-3,1.5c-0.9,1-1.7,2.3-2.3,4c-0.6,1.7-0.8,3.4-0.8,5.2
		C342.6,221.1,343.6,222.3,345.6,222.3z"/>
	<path d="M387,201.2c-2,0-3.7,0.6-5.3,1.7c-1.5,1.1-2.8,2.8-3.7,5c-0.9,2.2-1.4,4.6-1.4,7.2c0,2.3,0.5,4,1.6,5.3
		c1.1,1.2,2.6,1.8,4.7,1.8c1.8,0,3.9-0.4,6.3-1.3v3.9c-2.3,0.9-4.7,1.3-7.2,1.3c-3.2,0-5.6-0.9-7.4-2.8c-1.8-1.9-2.7-4.5-2.7-8
		c0-3.3,0.7-6.4,2-9.2s3.1-5,5.4-6.5c2.2-1.5,4.8-2.2,7.7-2.2c2.8,0,5.2,0.6,7.4,1.8l-1.8,3.7c-0.8-0.4-1.7-0.8-2.6-1.1
		C389.2,201.3,388.1,201.2,387,201.2z"/>
	<path d="M413.4,212.4c0,2.6-0.5,4.9-1.4,7c-0.9,2.1-2.2,3.7-3.8,4.9s-3.5,1.7-5.6,1.7c-2.4,0-4.4-0.7-5.8-2.2s-2.2-3.4-2.2-6
		c0-2.5,0.5-4.9,1.4-7s2.2-3.8,3.8-4.9c1.6-1.2,3.5-1.8,5.7-1.8c2.5,0,4.4,0.7,5.8,2.2C412.7,207.8,413.4,209.8,413.4,212.4z
		 M408.8,212.2c0-1.4-0.3-2.4-0.9-3.2c-0.6-0.8-1.5-1.2-2.7-1.2c-1.2,0-2.2,0.5-3.2,1.4c-0.9,0.9-1.7,2.1-2.2,3.7s-0.8,3.2-0.8,5
		c0,1.4,0.3,2.5,0.9,3.2s1.6,1.1,2.8,1.1c1.1,0,2.2-0.4,3.1-1.3c0.9-0.9,1.6-2.1,2.1-3.6C408.6,215.8,408.8,214,408.8,212.2z"/>
	<path d="M430.6,204.1c2.8,0,4.4,1.5,4.9,4.5h0.2c1-1.5,2-2.6,3.3-3.4c1.2-0.8,2.5-1.1,3.8-1.1c1.7,0,3,0.5,3.9,1.5s1.3,2.3,1.3,4.1
		c0,0.8-0.1,2-0.4,3.5l-2.7,12.5h-4.5l2.7-12.8c0.2-1.2,0.4-2.1,0.4-2.5c0-1.6-0.8-2.5-2.3-2.5c-1.4,0-2.7,0.8-3.9,2.4
		c-1.2,1.6-2.1,3.7-2.6,6.3l-1.9,9.2h-4.5l2.7-12.8c0.2-1,0.3-1.9,0.3-2.4c0-1.7-0.7-2.6-2.2-2.6c-1.4,0-2.7,0.8-3.9,2.4
		c-1.2,1.6-2.1,3.8-2.6,6.5l-1.9,9h-4.5l4.5-21.1h3.5l-0.4,3.9h0.2C425.8,205.5,428,204.1,430.6,204.1z"/>
	<path d="M461,226c-2.3,0-4-1.1-5.1-3.4h-0.2c-0.1,1.2-0.2,2.4-0.5,3.5l-1.8,8.9h-4.5l6.5-30.5h3.5l-0.4,3.6h0.2c2-2.7,4.2-4,6.6-4
		c1.8,0,3.2,0.7,4.3,2s1.5,3.1,1.5,5.5c0,2.6-0.4,5-1.3,7.3c-0.9,2.3-2.1,4-3.6,5.3C464.6,225.3,462.9,226,461,226z M463.6,207.7
		c-1,0-2.1,0.5-3.1,1.5c-1,1-1.9,2.4-2.5,4c-0.6,1.7-1,3.4-1,5.2c0,1.2,0.3,2.2,0.9,2.9s1.4,1,2.5,1s2.1-0.5,3-1.5
		c0.9-1,1.7-2.3,2.2-4c0.5-1.7,0.8-3.4,0.8-5.2C466.5,209,465.5,207.7,463.6,207.7z"/>
	<path d="M482.6,204.5l-2.5,11.7c-0.4,1.8-0.6,3-0.6,3.7c0,1.7,0.8,2.5,2.4,2.5c0.9,0,1.8-0.4,2.7-1.1c0.9-0.7,1.7-1.8,2.4-3.1
		s1.2-2.9,1.6-4.7l1.9-9h4.5l-4.5,21.1h-3.5l0.4-3.9h-0.2c-1,1.5-2.1,2.6-3.3,3.3c-1.1,0.7-2.4,1-3.7,1c-1.7,0-3-0.5-4-1.5
		c-0.9-1-1.4-2.4-1.4-4.2c0-0.8,0.1-1.6,0.2-2.4c0.2-0.8,0.3-1.6,0.5-2.4l2.4-11.2H482.6z"/>
	<path d="M504.7,222.3c0.9,0,1.8-0.2,2.9-0.6v3.4c-0.4,0.2-1.1,0.4-1.8,0.6s-1.5,0.2-2.3,0.2c-3.5,0-5.2-1.6-5.2-4.7
		c0-0.7,0.1-1.6,0.3-2.5l2.3-10.9h-3.1l0.4-2.1l3.6-1.6l2.5-4.4h2.8l-1,4.7h5.3l-0.7,3.4h-5.3l-2.3,10.9c-0.2,0.7-0.2,1.3-0.2,1.8
		c0,0.5,0.2,1,0.5,1.3S504,222.3,504.7,222.3z"/>
	<path d="M520.2,226c-2.5,0-4.5-0.7-5.9-2.1c-1.4-1.4-2.1-3.4-2.1-5.9c0-2.5,0.5-4.9,1.5-7c1-2.2,2.3-3.9,4-5s3.6-1.8,5.7-1.8
		c2.1,0,3.6,0.5,4.8,1.4s1.7,2.2,1.7,3.9c0,2.3-1.1,4.1-3.2,5.4s-5.1,2-9.1,2h-0.8l0,0.6v0.6c0,1.4,0.4,2.5,1.1,3.3s1.8,1.2,3.2,1.2
		c0.9,0,1.8-0.1,2.7-0.4s2-0.7,3.2-1.2v3.6c-1.2,0.6-2.3,1-3.4,1.2C522.6,225.9,521.4,226,520.2,226z M523.1,207.5
		c-1.2,0-2.4,0.5-3.5,1.6c-1.1,1.1-1.9,2.5-2.3,4.3h0.6c2.4,0,4.3-0.3,5.6-1c1.4-0.7,2-1.6,2-2.9c0-0.6-0.2-1.2-0.6-1.5
		S523.9,207.5,523.1,207.5z"/>
	<path d="M546.2,204.1c0.8,0,1.5,0.1,2.1,0.2l-1,4.2c-0.7-0.2-1.3-0.3-2-0.3c-1.6,0-3,0.7-4.3,2.2c-1.3,1.4-2.1,3.3-2.6,5.7l-2,9.6
		h-4.5l4.5-21.1h3.5l-0.4,3.9h0.2c1.1-1.5,2.1-2.6,3.2-3.3C543.9,204.4,545,204.1,546.2,204.1z"/>
</g>
</svg>
